<svg width="580.8636688232422" height="119.60827724202844" viewBox="0 0 369.9130434782609 76.17047550834872" xmlns="http://www.w3.org/2000/svg">
  <defs id="SvgjsDefs1011"></defs>
  <g id="SvgjsG1012" featurekey="Df7oLJ-0" transform="matrix(0.8352026102761492,0,0,0.8352026102761492,-4.259533631012872,-3.674891166610545)" fill="#d72323">
    <g xmlns="http://www.w3.org/2000/svg">
      <g>
        <path d="M56.4,95.6H44.9c-4.4,0-8-3.6-8-8V72.8c0-2.1,0.9-4.2,2.3-5.6l5.7-5.7c1.5-1.5,3.5-2.3,5.6-2.3h0 c2.1,0,4.1,0.8,5.6,2.3l5.7,5.7c1.5,1.5,2.3,3.5,2.3,5.6v14.7C64.4,92,60.8,95.6,56.4,95.6z M50.6,64c-0.8,0-1.6,0.3-2.2,0.9 l-5.7,5.7c-0.6,0.6-0.9,1.4-0.9,2.2v14.7c0,1.7,1.4,3.1,3.1,3.1h11.5c1.7,0,3.1-1.4,3.1-3.1V72.8c0-0.8-0.3-1.6-0.9-2.2l-5.7-5.7 C52.2,64.3,51.5,64,50.6,64z M88.2,63.7H73.5c-2.1,0-4.1-0.8-5.6-2.3l-5.7-5.7c-1.5-1.5-2.3-3.5-2.3-5.6c0-2.1,0.8-4.1,2.3-5.6 l5.7-5.7l0,0c1.5-1.5,3.5-2.3,5.6-2.3h14.7c4.4,0,8,3.6,8,8v11.5C96.2,60.1,92.6,63.7,88.2,63.7z M71.3,42.1l-5.7,5.7 c-0.6,0.6-0.9,1.4-0.9,2.2c0,0.8,0.3,1.6,0.9,2.2l5.7,5.7c0.6,0.6,1.4,0.9,2.2,0.9h14.7c1.7,0,3.1-1.4,3.1-3.1V44.3 c0-1.7-1.4-3.1-3.1-3.1H73.5C72.6,41.2,71.9,41.5,71.3,42.1L71.3,42.1z M27.8,63.7H13.1c-4.4,0-8-3.6-8-8V44.3c0-4.4,3.6-8,8-8 h14.7c2.1,0,4.1,0.8,5.6,2.3l5.7,5.7c3.1,3.1,3.1,8.2,0,11.3l-5.7,5.7C31.9,62.9,29.9,63.7,27.8,63.7z M13.1,41.2 c-1.7,0-3.1,1.4-3.1,3.1v11.5c0,1.7,1.4,3.1,3.1,3.1h14.7c0.8,0,1.6-0.3,2.2-0.9l5.7-5.7c1.2-1.2,1.2-3.2,0-4.4L30,42.1 c-0.6-0.6-1.4-0.9-2.2-0.9H13.1z M50.6,40.9c-2,0-4.1-0.8-5.6-2.3l-5.7-5.7c-1.5-1.5-2.3-3.5-2.3-5.6V12.4c0-4.4,3.6-8,8-8h11.5 c4.4,0,8,3.6,8,8v14.7c0,2.1-0.8,4.1-2.3,5.6l-5.7,5.7C54.7,40.1,52.7,40.9,50.6,40.9z M44.9,9.3c-1.7,0-3.1,1.4-3.1,3.1v14.7 c0,0.8,0.3,1.6,0.9,2.2l5.7,5.7c1.2,1.2,3.2,1.2,4.4,0l5.7-5.7c0.6-0.6,0.9-1.4,0.9-2.2V12.4c0-1.7-1.4-3.1-3.1-3.1H44.9z"></path>
      </g>
    </g>
  </g>
  <g id="SvgjsG1013" featurekey="Ua4uQk-0" transform="matrix(2.4278766550185256,0,0,2.4278766550185256,93.81491077894296,6.918312622408221)" fill="#ffffff">
    <path d="M14.36 12.46 c0.68 4.76 -2.38 7.74 -6.18 7.74 c-4.02 0 -7.28 -2.94 -7.28 -7.2 s3.32 -7.2 7.28 -7.2 c1.88 0 3.52 0.6 4.74 1.66 l-1.94 2.18 c-0.7 -0.48 -1.64 -0.82 -2.6 -0.82 c-2.46 0 -4.12 1.76 -4.12 4.18 s1.6 4.18 3.92 4.18 c1.7 0 2.8 -0.52 3.22 -2 l-3.12 0 l0 -2.72 l6.08 0 z M23.82 9.6 l3.16 0 l0 10.4 l-3.16 0 l0 -1.04 c-0.14 0.36 -1.08 1.24 -2.68 1.24 c-2.38 0 -5.12 -1.7 -5.12 -5.42 c0 -3.58 2.74 -5.36 5.12 -5.36 c1.6 0 2.54 0.92 2.68 1.14 l0 -0.96 z M21.6 17.42 c1.3 0 2.36 -0.9 2.36 -2.64 c0 -1.68 -1.06 -2.58 -2.36 -2.58 c-1.36 0 -2.52 0.92 -2.52 2.58 c0 1.72 1.16 2.64 2.52 2.64 z M42.92 9.44 c2.22 0 4.18 1.44 4.18 4.96 l0 5.6 l-3.16 0 l0 -5.5 c0 -1.32 -0.56 -2.32 -2.02 -2.32 c-1.22 0 -2.04 1.08 -2.28 2.04 l0 5.78 l-3.16 0 l0 -5.5 c0 -1.32 -0.82 -2.32 -2.02 -2.32 c-1.3 0 -2.08 0.88 -2.28 2.04 l0 5.78 l-3.16 0 l0 -10.4 l3.16 0 l0 1.9 c0.04 -0.48 1.06 -2.06 3.1 -2.06 c1.5 0 2.94 0.8 3.8 2.26 c0.24 -0.56 1.44 -2.26 3.84 -2.26 z M54.18 9.42 c2.36 0 5.66 1.78 5 6.48 l-7.26 0 c0.36 1.08 1.3 1.64 2.56 1.64 c1.28 0 1.68 -0.28 2.4 -0.58 l1.74 1.68 c-0.92 0.9 -2.16 1.56 -4.26 1.56 c-2.58 0 -5.66 -1.78 -5.66 -5.36 c0 -3.64 3.12 -5.42 5.48 -5.42 z M54.18 12.120000000000001 c-0.9 0 -1.82 0.52 -2.22 1.56 l4.42 0 c-0.32 -1.04 -1.3 -1.56 -2.2 -1.56 z M72.32 6 l3.42 0 l-6.22 14 l-2.94 0 l-6.22 -14 l3.42 0 l4.28 10.1 z M84.64 9.6 l3.16 0 l0 10.4 l-3.16 0 l0 -1.04 c-0.14 0.36 -1.08 1.24 -2.68 1.24 c-2.38 0 -5.12 -1.7 -5.12 -5.42 c0 -3.58 2.74 -5.36 5.12 -5.36 c1.6 0 2.54 0.92 2.68 1.14 l0 -0.96 z M82.42 17.42 c1.3 0 2.36 -0.9 2.36 -2.64 c0 -1.68 -1.06 -2.58 -2.36 -2.58 c-1.36 0 -2.52 0.92 -2.52 2.58 c0 1.72 1.16 2.64 2.52 2.64 z M93.63999999999999 20.16 c-1.94 0 -3.92 -1.3 -3.92 -4.6 l0 -5.96 l3.16 0 l0 5.74 c0 1.58 0.54 2.08 1.54 2.08 c1.42 0 2.24 -1.38 2.44 -1.98 l0 -5.84 l3.16 0 l0 10.4 l-3.16 0 l0 -1.8 c-0.2 0.5 -1.26 1.96 -3.22 1.96 z M105.22 5.859999999999999 l0 14.14 l-3.16 0 l0 -14.14 l3.16 0 z M112.32 17.36 c0.56 0 0.96 -0.08 1.4 -0.2 l0 2.62 c-0.44 0.2 -1.16 0.34 -2.22 0.34 c-1.74 0 -3.2 -0.58 -3.2 -3.78 l0 -4.14 l-1.46 0 l0 -2.6 l1.46 0 l0 -2.44 l3.16 0 l0 2.44 l2.22 0 l0 2.6 l-2.22 0 l0 4.14 c0 0.46 0.12 1.02 0.86 1.02 z"></path>
  </g>
</svg>