<svg xmlns="http://www.w3.org/2000/svg" viewBox="0 0 100 100">
  <g id="SvgjsG1012" fill="#d72323">
    <g>
      <g>
        <path d="M56.4,95.6H44.9c-4.4,0-8-3.6-8-8V72.8c0-2.1,0.9-4.2,2.3-5.6l5.7-5.7c1.5-1.5,3.5-2.3,5.6-2.3h0    c2.1,0,4.1,0.8,5.6,2.3l5.7,5.7c1.5,1.5,2.3,3.5,2.3,5.6v14.7C64.4,92,60.8,95.6,56.4,95.6z M50.6,64c-0.8,0-1.6,0.3-2.2,0.9    l-5.7,5.7c-0.6,0.6-0.9,1.4-0.9,2.2v14.7c0,1.7,1.4,3.1,3.1,3.1h11.5c1.7,0,3.1-1.4,3.1-3.1V72.8c0-0.8-0.3-1.6-0.9-2.2l-5.7-5.7    C52.2,64.3,51.5,64,50.6,64z M88.2,63.7H73.5c-2.1,0-4.1-0.8-5.6-2.3l-5.7-5.7c-1.5-1.5-2.3-3.5-2.3-5.6c0-2.1,0.8-4.1,2.3-5.6    l5.7-5.7l0,0c1.5-1.5,3.5-2.3,5.6-2.3h14.7c4.4,0,8,3.6,8,8v11.5C96.2,60.1,92.6,63.7,88.2,63.7z M71.3,42.1l-5.7,5.7    c-0.6,0.6-0.9,1.4-0.9,2.2c0,0.8,0.3,1.6,0.9,2.2l5.7,5.7c0.6,0.6,1.4,0.9,2.2,0.9h14.7c1.7,0,3.1-1.4,3.1-3.1V44.3    c0-1.7-1.4-3.1-3.1-3.1H73.5C72.6,41.2,71.9,41.5,71.3,42.1L71.3,42.1z M27.8,63.7H13.1c-4.4,0-8-3.6-8-8V44.3c0-4.4,3.6-8,8-8    h14.7c2.1,0,4.1,0.8,5.6,2.3l5.7,5.7c3.1,3.1,3.1,8.2,0,11.3l-5.7,5.7C31.9,62.9,29.9,63.7,27.8,63.7z M13.1,41.2    c-1.7,0-3.1,1.4-3.1,3.1v11.5c0,1.7,1.4,3.1,3.1,3.1h14.7c0.8,0,1.6-0.3,2.2-0.9l5.7-5.7c1.2-1.2,1.2-3.2,0-4.4L30,42.1    c-0.6-0.6-1.4-0.9-2.2-0.9H13.1z M50.6,40.9c-2,0-4.1-0.8-5.6-2.3l-5.7-5.7c-1.5-1.5-2.3-3.5-2.3-5.6V12.4c0-4.4,3.6-8,8-8h11.5    c4.4,0,8,3.6,8,8v14.7c0,2.1-0.8,4.1-2.3,5.6l-5.7,5.7C54.7,40.1,52.7,40.9,50.6,40.9z M44.9,9.3c-1.7,0-3.1,1.4-3.1,3.1v14.7    c0,0.8,0.3,1.6,0.9,2.2l5.7,5.7c1.2,1.2,3.2,1.2,4.4,0l5.7-5.7c0.6-0.6,0.9-1.4,0.9-2.2V12.4c0-1.7-1.4-3.1-3.1-3.1H44.9z"></path>
      </g>
    </g>
  </g>
</svg>