<svg width="274" height="35" xmlns="http://www.w3.org/2000/svg">
    <g fill="#F5F5F5">
        <path d="m32.67922,16.16966c1.65096,11.55669 -5.77835,18.79177 -15.00428,18.79177c-9.76006,0 -17.67494,-7.13796 -17.67494,-17.48071s8.06055,-17.48071 17.67494,-17.48071c4.56441,0 8.54613,1.45673 11.50814,4.03028l-4.71008,5.29277c-1.69951,-1.16538 -3.98172,-1.99086 -6.31248,-1.99086c-5.97258,0 -10.00285,4.27306 -10.00285,10.14852s3.8846,10.14852 9.51728,10.14852c4.12739,0 6.79805,-1.2625 7.81776,-4.85575l-7.57498,0l0,-6.60382l14.76149,0zm22.96771,-6.94373l7.67209,0l0,25.24992l-7.67209,0l0,-2.52499c-0.3399,0.87404 -2.62211,3.01057 -6.50671,3.01057c-5.77835,0 -12.43073,-4.12739 -12.43073,-13.15909c0,-8.6918 6.65238,-13.01342 12.43073,-13.01342c3.8846,0 6.16681,2.23365 6.50671,2.76778l0,-2.33076zm-5.38989,18.986c3.15624,0 5.72979,-2.18509 5.72979,-6.40959c0,-4.07883 -2.57355,-6.26392 -5.72979,-6.26392c-3.30191,0 -6.11825,2.23365 -6.11825,6.26392c0,4.17595 2.81634,6.40959 6.11825,6.40959zm51.76233,-19.37446c5.38989,0 10.14852,3.49614 10.14852,12.04227l0,13.59611l-7.67209,0l0,-13.35332c0,-3.2048 -1.35961,-5.63267 -4.90431,-5.63267c-2.96201,0 -4.95287,2.62211 -5.53556,4.95287l0,14.03313l-7.67209,0l0,-13.35332c0,-3.2048 -1.99086,-5.63267 -4.90431,-5.63267c-3.15624,0 -5.04998,2.13653 -5.53556,4.95287l0,14.03313l-7.67209,0l0,-25.24992l7.67209,0l0,4.61297c0.09712,-1.16538 2.57355,-5.00143 7.52642,-5.00143c3.64182,0 7.13796,1.9423 9.22593,5.487c0.58269,-1.35961 3.49614,-5.487 9.32305,-5.487zm27.33789,-0.04856c5.72979,0 13.74178,4.32162 12.13938,15.73264l-17.62638,0c0.87404,2.62211 3.15624,3.98172 6.21536,3.98172c3.10768,0 4.07883,-0.67981 5.8269,-1.40817l4.22451,4.07883c-2.23365,2.18509 -5.24421,3.78749 -10.34275,3.78749c-6.26392,0 -13.74178,-4.32162 -13.74178,-13.01342c0,-8.83747 7.57498,-13.15909 13.30476,-13.15909zm0,6.55527c-2.18509,0 -4.41874,1.2625 -5.38989,3.78749l10.73122,0c-0.77692,-2.52499 -3.15624,-3.78749 -5.34133,-3.78749zm44.04168,-14.85861l8.30334,0l-15.10139,33.99027l-7.13796,0l-15.10139,-33.99027l8.30334,0l10.39131,24.52155l10.34275,-24.52155zm29.91144,8.74036l7.67209,0l0,25.24992l-7.67209,0l0,-2.52499c-0.3399,0.87404 -2.62211,3.01057 -6.50671,3.01057c-5.77835,0 -12.43073,-4.12739 -12.43073,-13.15909c0,-8.6918 6.65238,-13.01342 12.43073,-13.01342c3.8846,0 6.16681,2.23365 6.50671,2.76778l0,-2.33076zm-5.38989,18.986c3.15624,0 5.72979,-2.18509 5.72979,-6.40959c0,-4.07883 -2.57355,-6.26392 -5.72979,-6.26392c-3.30191,0 -6.11825,2.23365 -6.11825,6.26392c0,4.17595 2.81634,6.40959 6.11825,6.40959zm27.24078,6.65238c-4.71008,0 -9.51728,-3.15624 -9.51728,-11.16823l0,-14.47015l7.67209,0l0,13.93601c0,3.83605 1.31105,5.04998 3.73893,5.04998c3.44758,0 5.43844,-3.35047 5.92402,-4.8072l0,-14.1788l7.67209,0l0,25.24992l-7.67209,0l0,-4.37018c-0.48558,1.21394 -3.05912,4.75864 -7.81776,4.75864zm28.11481,-34.71864l0,34.33018l-7.67209,0l0,-34.33018l7.67209,0zm17.23792,27.92058c1.35961,0 2.33076,-0.19423 3.39903,-0.48558l0,6.36104c-1.06827,0.48558 -2.81634,0.82548 -5.38989,0.82548c-4.22451,0 -7.76921,-1.40817 -7.76921,-9.17737l0,-10.05141l-3.5447,0l0,-6.31248l3.5447,0l0,-5.92402l7.67209,0l0,5.92402l5.38989,0l0,6.31248l-5.38989,0l0,10.05141c0,1.11682 0.29135,2.47643 2.08797,2.47643z" />
    </g>
</svg>